<svg width="30" height="30" viewBox="0 0 30 30" fill="none" xmlns="http://www.w3.org/2000/svg">
<path fill-rule="evenodd" clip-rule="evenodd" d="M11.7897 14.5L6.35513 9.06538C5.60671 8.31697 5.60671 7.10354 6.35513 6.35513C7.10354 5.60671 8.31697 5.60671 9.06538 6.35513L14.5 11.7897L19.9346 6.35513C20.683 5.60671 21.8965 5.60671 22.6449 6.35513C23.3933 7.10354 23.3933 8.31697 22.6449 9.06538L17.2103 14.5L22.6449 19.9346C23.3933 20.683 23.3933 21.8965 22.6449 22.6449C21.8965 23.3933 20.683 23.3933 19.9346 22.6449L14.5 17.2103L9.06538 22.6449C8.31697 23.3933 7.10354 23.3933 6.35513 22.6449C5.60671 21.8965 5.60671 20.683 6.35513 19.9346L11.7897 14.5Z" fill="white"/>
</svg>
