<svg width="44" height="44" viewBox="0 0 44 44" fill="none" xmlns="http://www.w3.org/2000/svg">
<circle cx="22" cy="22" r="21" stroke="#ED7173" stroke-width="2"/>
<path d="M31.5 21.134C32.1667 21.5189 32.1667 22.4811 31.5 22.866L18 30.6603C17.3333 31.0452 16.5 30.564 16.5 29.7942L16.5 14.2058C16.5 13.436 17.3333 12.9548 18 13.3397L31.5 21.134Z" fill="#ED7173"/>
<circle cx="22" cy="22" r="21" stroke="white" stroke-width="2"/>
<path d="M31.5 21.134C32.1667 21.5189 32.1667 22.4811 31.5 22.866L18 30.6603C17.3333 31.0452 16.5 30.564 16.5 29.7942L16.5 14.2058C16.5 13.436 17.3333 12.9548 18 13.3397L31.5 21.134Z" fill="white"/>
</svg>
